<?xml version="1.0" encoding="utf-8"?>
<!-- Generator: Adobe Illustrator 16.0.0, SVG Export Plug-In . SVG Version: 6.00 Build 0)  -->
<!DOCTYPE svg PUBLIC "-//W3C//DTD SVG 1.1//EN" "http://www.w3.org/Graphics/SVG/1.1/DTD/svg11.dtd">
<svg version="1.1" id="Capa_1" xmlns="http://www.w3.org/2000/svg" xmlns:xlink="http://www.w3.org/1999/xlink" x="0px" y="0px"
	 width="100px" height="100px" viewBox="0 0 100 100" enable-background="new 0 0 100 100" xml:space="preserve">
<path fill="#E23342" d="M14.648,100h32.617V64.453H35.547V52.734h11.719V38.086c0-8.077,6.571-14.648,14.648-14.648h14.648v11.719
	H64.844c-3.23,0-5.859,2.628-5.859,5.859v11.719h17.049L74.08,64.453H58.984V100h26.367C93.429,100,100,93.429,100,85.352V14.648
	C100,6.571,93.429,0,85.352,0H14.648C6.571,0,0,6.571,0,14.648v70.703C0,93.429,6.571,100,14.648,100z M5.859,14.648
	c0-4.846,3.943-8.789,8.789-8.789h70.703c4.846,0,8.789,3.943,8.789,8.789v70.703c0,4.846-3.943,8.789-8.789,8.789H64.844V70.313
	h14.201l3.906-23.438H64.844v-5.859h17.578V17.578H61.914c-11.309,0-20.508,9.2-20.508,20.508v8.789H29.688v23.438h11.719v23.828
	H14.648c-4.846,0-8.789-3.943-8.789-8.789V14.648z"/>
</svg>
