<?xml version="1.0" encoding="utf-8"?>
<!-- Generator: Adobe Illustrator 16.0.0, SVG Export Plug-In . SVG Version: 6.00 Build 0)  -->
<!DOCTYPE svg PUBLIC "-//W3C//DTD SVG 1.1//EN" "http://www.w3.org/Graphics/SVG/1.1/DTD/svg11.dtd">
<svg version="1.1" id="Capa_1" xmlns="http://www.w3.org/2000/svg" xmlns:xlink="http://www.w3.org/1999/xlink" x="0px" y="0px"
	 width="100px" height="100px" viewBox="0 0 100 100" enable-background="new 0 0 100 100" xml:space="preserve">
<path fill="#E23342" d="M14.648,100h70.703C93.429,100,100,93.429,100,85.352V14.648C100,6.571,93.429,0,85.352,0H14.648
	C6.571,0,0,6.571,0,14.648v70.703C0,93.429,6.571,100,14.648,100z M5.859,14.648c0-4.846,3.943-8.789,8.789-8.789h70.703
	c4.846,0,8.789,3.943,8.789,8.789v70.703c0,4.846-3.943,8.789-8.789,8.789H14.648c-4.846,0-8.789-3.943-8.789-8.789V14.648z"/>
<path fill="#E23342" d="M50,76.367c14.539,0,26.367-11.828,26.367-26.367c0-14.539-11.828-26.367-26.367-26.367
	c-14.539,0-26.367,11.829-26.367,26.367C23.633,64.539,35.461,76.367,50,76.367z M50,29.492c11.309,0,20.508,9.2,20.508,20.508
	c0,11.309-9.199,20.508-20.508,20.508c-11.308,0-20.508-9.199-20.508-20.508C29.492,38.692,38.692,29.492,50,29.492z"/>
<path fill="#E23342" d="M79.297,29.492c4.846,0,8.789-3.943,8.789-8.789s-3.943-8.789-8.789-8.789s-8.789,3.943-8.789,8.789
	S74.451,29.492,79.297,29.492z M79.297,17.773c1.615,0,2.93,1.314,2.93,2.93s-1.314,2.93-2.93,2.93s-2.93-1.314-2.93-2.93
	S77.682,17.773,79.297,17.773z"/>
</svg>
